<?xml version="1.0" encoding="utf-8"?>
<!-- Generator: Adobe Illustrator 19.2.1, SVG Export Plug-In . SVG Version: 6.00 Build 0)  -->
<svg version="1.1" id="Layer_1" xmlns="http://www.w3.org/2000/svg" xmlns:xlink="http://www.w3.org/1999/xlink" x="0px" y="0px"
	 viewBox="0 0 100 100" style="enable-background:new 0 0 100 100;" xml:space="preserve">
<style type="text/css">
	.st0{fill:#B31B1B;}
</style>
<g>
	<path class="st0" d="M28.8,45.8h20.4v4.5c-0.3-0.1-1.3-0.2-2.3-0.1c-0.6,0.1-1.2,0.1-1.7,0.2c-0.9,0.1-1.7,0.2-2.4,0.2
		c-0.9,0-1.5,0-2.1,0c-0.4,0-0.8,0-1.1,0h-0.8v4.3h-2v2.3h2v4.3h-2v2.3h2v4.8h0.8c0,0,1.1,0.1,2.6,0c1.4,0,2.4-0.1,3.3-0.2
		c0.9-0.1,1.7-0.2,2.8-0.2c0.4,0,0.6,0.1,0.8,0.4l0.1,0.1v11.8c-4.9-2.4-20.4-11.1-20.4-24.4L28.8,45.8L28.8,45.8z M28.8,27.6h42.8
		v16H28.8V27.6L28.8,27.6z M51.1,67V52.1c0.1-0.1,0.2-0.1,0.4-0.1c0,0,0.9-0.2,1.9-0.1c0.6,0.1,1.2,0.1,1.7,0.2
		c0.9,0.1,1.8,0.2,2.5,0.2s1.4,0,1.9,0c0.2,0,0.3,0,0.4,0v14.8c-0.4,0-1,0-1.6,0c-1.4,0-2.3-0.1-3.2-0.2s-1.8-0.2-3-0.2
		C51.7,66.8,51.3,66.9,51.1,67L51.1,67z M71.6,56.9c0,12.9-15.9,21.7-20.5,24V69.1c0.1-0.1,0.2-0.2,0.2-0.2c0.2-0.3,0.4-0.4,0.8-0.4
		c1.1,0,1.9,0.1,2.8,0.2c0.9,0.1,1.9,0.2,3.3,0.2c1.4,0,2.5,0,2.5,0h0.8v-4.4h1.9V62h-1.9v-4.3h1.9v-2.3h-1.9v-4.8h-0.8
		c-0.3,0-0.6,0-1.1,0c-0.6,0-1.2,0-2.1,0c-0.7,0-1.5-0.1-2.4-0.2c-0.5-0.1-1.1-0.1-1.7-0.2c-1.3-0.1-2.4,0.1-2.5,0.1c0,0,0,0-0.1,0
		v-4.5h20.5L71.6,56.9L71.6,56.9z M49.1,66.9c-0.2-0.1-0.5-0.1-0.8-0.1c0,0,0,0-0.1,0c-1.2,0-2,0.1-2.9,0.2s-1.8,0.2-3.2,0.2
		c-0.6,0-1.2,0-1.6,0V52.3c0.1,0,0.1,0,0.2,0c0.6,0,1.3,0,2.1,0c0.7,0,1.6-0.1,2.5-0.2c0.5-0.1,1.1-0.1,1.7-0.2
		c1-0.1,1.9,0.1,1.9,0.1c0.1,0,0.2,0,0.2,0.1L49.1,66.9L49.1,66.9z M38.2,76.6c5.7,4.5,11.3,6.9,11.5,7l0.4,0.2l0.4-0.2
		c0.2-0.1,5.8-2.5,11.5-7c7.6-6,11.7-12.8,11.7-19.7V25.3H26.4v31C26.5,63.5,30.6,70.5,38.2,76.6L38.2,76.6z"/>
	<path class="st0" d="M45,37.2c0,0.4-0.5,0.9-1,1.2c-1,0.7-2.6,1.6-3.3,2c-0.7-0.4-2.2-1.3-3.2-2c-0.7-0.4-1.1-0.9-1.1-1.2
		c0-0.1,0-1.1,0-2.4H45C45,36,45,37,45,37.2L45,37.2z M36.4,30.8H45c0,0.7,0,1.4,0,2.2h-8.6C36.4,32.3,36.4,31.5,36.4,30.8
		L36.4,30.8z M46.6,29.2h-12V30c0,2.6,0,7,0,7.2c0.1,0.9,0.7,1.7,1.8,2.5c1.4,1,3.6,2.2,3.7,2.3l0.4,0.2L41,42
		c0.1-0.1,2.4-1.3,3.9-2.3c1.7-1.1,1.7-2.2,1.7-2.5c0-0.2,0-4,0-7.2L46.6,29.2L46.6,29.2z"/>
	<path class="st0" d="M60.6,31.4l-4.2,3c0-1.2,0-2.7,0-4h8.9c0,1.3,0,2.8,0,4L60.6,31.4L60.6,31.4z M65.3,37c0,0.4-0.6,0.9-1,1.2
		c-1.1,0.7-2.7,1.6-3.4,2c-0.7-0.4-2.2-1.3-3.3-2c-0.3-0.2-1.1-0.8-1.1-1.3c0,0,0-0.2,0-0.4l4.2-3.1l4.6,3.1
		C65.3,36.8,65.3,37,65.3,37L65.3,37z M67,28.8H54.8v0.8c0,3.3,0,7.2,0,7.4c0.1,0.9,0.7,1.7,1.9,2.5c1.5,1,3.7,2.3,3.8,2.3l0.4,0.2
		l0.4-0.2c0.1-0.1,2.5-1.3,4-2.3c1.7-1.2,1.8-2.2,1.8-2.6c0-0.2,0-4.1,0-7.4L67,28.8L67,28.8z"/>
	<path class="st0" d="M53.2,55.4l0.8,0.1c0.5,0.1,1,0.1,1.4,0.1l2.5,0.1V54l-2.5-0.1c-0.4,0-0.8-0.1-1.3-0.1l-0.8-0.1
		c-0.2,0-0.4,0-0.6,0l0.1,1.7C53,55.4,53.1,55.4,53.2,55.4L53.2,55.4z"/>
	<path class="st0" d="M55.5,58.6c-0.4,0-0.8-0.1-1.2-0.1c-0.3,0-0.6-0.1-0.9-0.1c-0.2,0-0.4,0-0.6,0v1.7c0.1,0,0.3,0,0.4,0
		c0.3,0,0.6,0.1,0.9,0.1c0.5,0.1,1,0.1,1.4,0.1c0.5,0,1.3,0,1.8,0h0.6v-1.7h-0.6C56.8,58.6,56,58.6,55.5,58.6L55.5,58.6z"/>
	<path class="st0" d="M55.5,63.2c-0.4,0-0.8-0.1-1.2-0.1c-0.3,0-0.6-0.1-0.9-0.1c-0.2,0-0.4,0-0.6,0l0.1,1.7c0.1,0,0.2,0,0.4,0
		c0.3,0,0.6,0.1,0.8,0.1c0.5,0.1,1,0.1,1.4,0.1h0.7c0.7,0,1.5,0,1.8,0v-1.7c-0.3,0-1.1,0-1.8,0H55.5L55.5,63.2z"/>
	<path class="st0" d="M44.9,55.6c0.4,0,0.9-0.1,1.4-0.1c0.3,0,0.5-0.1,0.8-0.1c0.1,0,0.3,0,0.4,0v-1.7c-0.2,0-0.4,0-0.6,0
		c-0.3,0-0.6,0.1-0.8,0.1c-0.5,0-0.9,0.1-1.3,0.1L42.4,54v1.7L44.9,55.6L44.9,55.6z"/>
	<path class="st0" d="M46.1,58.5c-0.5,0.1-0.9,0.1-1.3,0.1l-2.5,0.1v1.7l2.5-0.1c0.4,0,0.9-0.1,1.4-0.1l0.8-0.1c0.1,0,0.3,0,0.4,0
		l0.1-1.7c-0.2,0-0.4,0-0.6,0L46.1,58.5L46.1,58.5z"/>
	<path class="st0" d="M46.1,63.1c-0.5,0.1-0.9,0.1-1.4,0.1c-0.8,0-2,0.1-2.4,0.1V65c0.4,0,1.6,0,2.5-0.1c0.4,0,0.9-0.1,1.4-0.1
		l0.8-0.1c0.1,0,0.2,0,0.4,0V63c-0.2,0-0.4,0-0.6,0L46.1,63.1L46.1,63.1z"/>
	<path class="st0" d="M7.6,50.3c2.1,0,3.4-1.3,3.5-3.7c0-0.5,0-1-0.1-1.6v-0.2H9.3l0.2,0.4c0.1,0.3,0.2,0.9,0.2,1.4
		c-0.1,1.2-1,2-2.3,1.9s-2.1-0.9-2.1-2.1c0-0.4,0.1-0.8,0.4-1.3l0.2-0.3l-1.7-0.3l-0.2,0c-0.2,0.5-0.4,1.1-0.4,1.6
		c-0.2,2.4,1.2,4,3.6,4.1C7.4,50.3,7.5,50.3,7.6,50.3L7.6,50.3z"/>
	<path class="st0" d="M6.7,38c0.3-0.9,1.1-1,1.7-1c0.3,0,0.6,0,0.9,0.1c0.7,0.2,1.3,0.6,1.6,1.1c0.2,0.3,0.2,0.7,0.1,1.1
		c-0.3,0.9-1,1.1-1.6,1.1c-0.3,0-0.6,0-1-0.1C7.4,39.9,6.4,39.2,6.7,38L6.7,38z M7.9,42c0.5,0.1,0.9,0.2,1.3,0.2
		c1.6,0,2.8-0.9,3.2-2.6c0.3-1,0.2-1.9-0.2-2.6c-0.5-0.8-1.3-1.4-2.4-1.8C9.4,35.1,8.9,35,8.5,35c-1.6,0-2.8,0.9-3.2,2.6
		C4.6,39.7,5.6,41.4,7.9,42L7.9,42z"/>
	<path class="st0" d="M11.3,30.4l-0.1,0.2L10,30l0.1-0.2c0.3-0.5,0.6-1,1.1-0.7c0.2,0.1,0.3,0.2,0.3,0.3
		C11.7,29.7,11.5,30.1,11.3,30.4L11.3,30.4z M15.1,32.6l-2.5-1.3l0.1-0.2c0.2-0.4,0.4-0.4,0.8-0.4l2.4,0.3l1-1.8l-3.2-0.3
		c-0.2,0-0.4,0-0.6,0c0-0.7-0.3-1.3-1-1.7c-0.4-0.2-0.7-0.3-1-0.3c-1.2,0-1.8,1.2-2.3,2.2L8,30.7l6.4,3.4L15.1,32.6L15.1,32.6z"/>
	<polygon class="st0" points="19.1,26.3 15.8,23.6 20.5,24.6 21.8,23.1 16.2,18.4 15,19.8 18.3,22.5 13.7,21.5 12.4,23 18,27.7 	"/>
	<polygon class="st0" points="27.2,18.4 26.2,17.2 24.1,18.9 23.3,17.8 25.1,16.3 24.1,15.1 22.3,16.6 21.5,15.7 23.6,14 22.6,12.8 
		19.1,15.6 23.7,21.3 	"/>
	<polygon class="st0" points="33.2,14.9 32.4,13.5 30.2,14.7 27.4,9.8 25.8,10.7 29.3,17 	"/>
	<polygon class="st0" points="39.3,12.5 38.7,11 36.3,11.9 34.4,6.6 32.6,7.2 35.1,14 	"/>
	<path class="st0" d="M46.6,11.3c0.1,0,0.3,0,0.4,0c1-0.1,1.7-0.4,2.2-0.9c0.4-0.5,0.6-1.2,0.5-2.1l-0.4-4.6l-1.8,0.1L47.9,8
		c0.1,1.5-0.5,1.7-1,1.7h-0.1c-0.4,0-1-0.2-1.1-1.6L45.3,4l-1.8,0.2l0.4,4.6C44,10.4,44.9,11.3,46.6,11.3L46.6,11.3z"/>
	<polygon class="st0" points="54.9,7 56.4,11.5 58.5,11.8 59.4,4.6 57.7,4.4 57.1,8.6 55.5,4.1 53.5,3.8 52.5,11 54.3,11.2 	"/>
	<polygon class="st0" points="64.9,6.2 63.1,5.6 61,12.5 62.7,13.1 	"/>
	<polygon class="st0" points="74,10.2 72.3,9.4 68.8,13 69.6,8 67.8,7.1 66.8,14.7 68.5,15.6 	"/>
	<polygon class="st0" points="75.8,20.6 76.8,19.4 74.7,17.8 75.6,16.7 77.4,18.1 78.4,16.9 76.5,15.4 77.2,14.5 79.3,16.1 
		80.2,14.9 76.8,12.1 72.3,17.9 	"/>
	<path class="st0" d="M83.1,19.9l0.1,0.1c0.3,0.3,0.5,0.6,0.5,0.9c0,0.1-0.1,0.2-0.2,0.4c-0.1,0.1-0.3,0.2-0.4,0.2
		c-0.3,0-0.6-0.3-0.9-0.6l-0.1-0.1L83.1,19.9L83.1,19.9z M78.8,23.6l2.1-1.8l0.1,0.1c0.3,0.3,0.3,0.4,0.1,0.9L80,24.9l1.3,1.5
		l1.5-2.9c0.1-0.1,0.2-0.3,0.2-0.6c0.6,0.3,1.4,0.1,1.9-0.3c1.6-1.4,0.3-2.8-0.6-3.8L83,17.5l-5.5,4.8L78.8,23.6L78.8,23.6z"/>
	<path class="st0" d="M85.6,29.4c-0.4,0.2-0.8-0.1-1-0.5s-0.4-0.9-0.4-1.4v-0.4L82.5,28l0.1,0.4c0.2,0.6,0.3,0.9,0.6,1.5
		c0.6,1,1.4,1.5,2.2,1.5c0.4,0,0.8-0.1,1.2-0.3c1.3-0.8,1.1-2,0.9-2.8c-0.1-0.6-0.2-1,0.1-1.2C87.7,27,87.8,27,88,27
		c0.3,0,0.6,0.3,0.6,0.4c0.2,0.4,0.3,0.8,0.4,1.2v0.3l1.5-0.7V28c-0.1-0.5-0.3-1-0.6-1.6c-0.8-1.3-2.1-1.8-3.3-1
		c-1.2,0.7-1.1,1.9-0.9,2.8C85.8,28.9,85.9,29.3,85.6,29.4L85.6,29.4z"/>
	<polygon class="st0" points="86.4,36 93.1,33.3 92.4,31.6 85.7,34.3 	"/>
	<polygon class="st0" points="93.1,38.4 87.6,39.8 88,41.5 93.6,40.2 94,42 95.5,41.7 94.2,36.2 92.7,36.5 	"/>
	<polygon class="st0" points="88.9,47.2 89,49 91.8,48.9 96.4,51.2 96.3,49.2 93.6,47.9 96.1,46.3 96,44.2 91.7,47 	"/>
	<polygon class="st0" points="9,63.8 10.5,63.4 9.9,61.2 11,60.9 11.6,63.2 13.1,62.7 12,58.6 5,60.6 5.5,62.4 8.4,61.6 	"/>
	<path class="st0" d="M12.6,70.2c-0.5,0.2-0.9,0.3-1.3,0.3c-0.6,0-1.1-0.3-1.4-0.9c-0.2-0.4-0.2-0.8-0.1-1.1c0.2-0.5,0.7-1,1.4-1.3
		c0.4-0.2,0.9-0.3,1.3-0.3c0.6,0,1.1,0.3,1.4,0.8c0.2,0.4,0.2,0.8,0.1,1.1C13.7,69.4,13.2,69.9,12.6,70.2L12.6,70.2z M15.5,69.8
		c0.3-0.8,0.2-1.8-0.3-2.7c-0.6-1.3-1.7-2-3-2c-0.6,0-1.3,0.2-1.9,0.5c-1.1,0.5-1.8,1.3-2.1,2.2c-0.3,0.8-0.2,1.8,0.3,2.7
		c0.6,1.3,1.7,2,3,2c0.6,0,1.3-0.2,1.9-0.5C14.4,71.4,15.1,70.7,15.5,69.8L15.5,69.8z"/>
	<path class="st0" d="M20.5,75.4L17.2,78c-0.9,0.7-1.5,0.8-2,0.1c-0.2-0.3-0.3-0.5-0.3-0.8c0-0.4,0.3-0.7,0.8-1.2l3.2-2.6l-1.2-1.4
		L14.3,75c-0.7,0.6-1.1,1.3-1.2,2c0,0.7,0.3,1.4,0.8,2.1c0.7,0.9,1.5,1.3,2.3,1.3c0.6,0,1.2-0.2,1.8-0.7l3.6-2.8L20.5,75.4
		L20.5,75.4z"/>
	<polygon class="st0" points="26.6,81.3 23.9,84.6 24.9,80 23.3,78.6 18.7,84.3 20.1,85.4 22.8,82.1 21.8,86.8 23.4,88.1 28,82.5 	
		"/>
	<path class="st0" d="M32.3,89c-0.4,0.8-1,1.2-1.8,1.2c-0.3,0-0.6-0.1-0.9-0.2l-0.4-0.2l1.9-3.7l0.4,0.2c0.5,0.2,0.8,0.6,1,1.1
		S32.6,88.5,32.3,89L32.3,89z M32,84.8l-1.9-0.9l-3.3,6.5l1.9,0.9c0.9,0.5,1.7,0.7,2.4,0.7c1.3,0,2.2-0.7,2.9-2
		C35.1,87.7,34.4,86,32,84.8L32,84.8z"/>
	<polygon class="st0" points="36,94.3 40.3,95.5 40.7,94 38.2,93.3 38.5,92 40.8,92.6 41.3,91.1 38.9,90.4 39.2,89.3 41.8,90 
		42.2,88.5 37.8,87.3 	"/>
	<path class="st0" d="M46.6,94.7h-0.5l0.2-4.1h0.5c1,0.1,1.9,0.8,1.9,2.2C48.6,94.2,47.6,94.8,46.6,94.7L46.6,94.7z M46.7,89
		l-2.1-0.1l-0.4,7.2l2.1,0.1c0.2,0,0.3,0,0.5,0c2.4,0,3.7-1.1,3.9-3.4c0.1-1.1-0.2-2-0.8-2.6C49.2,89.5,48.2,89.1,46.7,89L46.7,89z"
		/>
	<path class="st0" d="M58.1,92.5l0.2-1.9l1,1.6L58.1,92.5L58.1,92.5z M57,88.5l-1.2,7.7l1.9-0.4l0.2-1.6l2.3-0.5l0.9,1.4l2-0.4
		l-4.3-6.5L57,88.5L57,88.5z"/>
	<polygon class="st0" points="63.9,92.2 64.5,94 66.3,93.4 65.6,91.6 	"/>
	<path class="st0" d="M70.4,89.8L69.9,90l-2-3.6l0.4-0.2c0.3-0.2,0.6-0.2,1-0.2c0.7,0,1.4,0.4,1.8,1.1
		C71.7,88.2,71.2,89.3,70.4,89.8L70.4,89.8z M67.4,84.9l-1.8,1l3.5,6.4l1.8-1c2.4-1.3,3.1-3,1.9-5.2C71.6,84,69.8,83.6,67.4,84.9
		L67.4,84.9z"/>
	<polygon class="st0" points="74.2,87.2 75.2,88.7 76.8,87.7 75.7,86.1 	"/>
	<polygon class="st0" points="77.1,77.9 76.7,80.7 78.3,81 78.5,79.8 81.9,83.3 83.3,82 78.2,76.8 	"/>
	<path class="st0" d="M85.9,76.6c-0.2,0.3-0.7,0.4-1,0.2c-0.3-0.2-0.4-0.5-0.3-1c0.5-0.3,0.9-0.4,1.2-0.2c0.2,0.1,0.2,0.3,0.3,0.4
		C86.1,76.2,86.1,76.4,85.9,76.6L85.9,76.6z M83.4,74.6c-0.3,0.2-0.5,0.3-0.8,0.3c-0.1,0-0.2,0-0.3-0.1c-0.4-0.3-0.2-0.7,0-0.9
		c0.1-0.2,0.3-0.3,0.4-0.3s0.3,0,0.4,0.1C83.4,74,83.5,74.4,83.4,74.6L83.4,74.6z M86.9,74.1c-0.6-0.4-1.3-0.5-2-0.2
		c0-0.7-0.4-1.3-0.8-1.7c-0.9-0.7-2.1-0.3-3,0.9c-0.9,1.2-0.8,2.4,0.2,3.1c0.5,0.4,1.2,0.5,1.8,0.2c0,0.8,0.2,1.4,0.8,1.8
		c0.4,0.3,0.8,0.5,1.3,0.5c0.7,0,1.5-0.4,2.1-1.3c0.5-0.7,0.7-1.4,0.6-2C87.7,74.9,87.4,74.5,86.9,74.1L86.9,74.1z"/>
	<path class="st0" d="M90.1,69.8c-0.1,0.2-0.3,0.4-0.6,0.4c-0.2,0-0.4-0.1-0.6-0.2c-0.4-0.2-0.6-0.4-0.7-0.6c0-0.1,0-0.3,0-0.4
		c0.1-0.2,0.3-0.3,0.5-0.3s0.4,0.1,0.7,0.2c0.3,0.2,0.5,0.4,0.6,0.6C90.2,69.5,90.2,69.6,90.1,69.8L90.1,69.8z M90.2,67
		c-1.3-0.6-2.5-0.3-3.1,1c-0.2,0.3-0.2,0.7-0.2,1c-0.4-0.4-0.9-0.9-0.5-1.7c0.2-0.4,0.4-0.6,0.7-0.9l0.2-0.2l-1.3-1l-0.2,0.1
		c-0.4,0.4-0.7,0.8-0.9,1.2c-0.4,0.7-0.4,1.4-0.2,2.1c0.4,1.2,1.6,2,2.5,2.4c0.8,0.4,1.5,0.6,2.1,0.6c0.9,0,1.6-0.5,2.1-1.4
		C92.2,69,91.7,67.8,90.2,67L90.2,67z"/>
	<path class="st0" d="M92.8,59.7c-1.4-0.4-2.6,0.2-3,1.6c0,0.1-0.1,0.2-0.1,0.4l-0.8-0.3l0.7-2.5l-1.4-0.4L87,62.7l4,1.3v-0.4
		c0-0.4,0-0.8,0.2-1.1c0.1-0.3,0.5-1.2,1.3-1c0.8,0.3,0.6,1.1,0.6,1.4c-0.1,0.5-0.4,0.8-0.7,1.1l-0.2,0.3l1.7,0.6l0.1-0.2
		c0.3-0.5,0.5-1.1,0.7-1.5c0.3-0.8,0.2-1.6-0.1-2.3C94,60.3,93.4,59.9,92.8,59.7L92.8,59.7z"/>
	<path class="st0" d="M50,14.7c19.5,0,35.3,15.8,35.3,35.3S69.5,85.3,50,85.3S14.7,69.5,14.7,50C14.7,30.5,30.5,14.7,50,14.7
		L50,14.7z M13.4,50c0,20.2,16.4,36.6,36.6,36.6S86.6,70.2,86.6,50S70.2,13.4,50,13.4C29.8,13.4,13.4,29.8,13.4,50L13.4,50z"/>
	<path class="st0" d="M50,98.7C23.1,98.7,1.3,76.9,1.3,50C1.3,23.2,23.1,1.3,50,1.3S98.7,23.1,98.7,50S76.9,98.7,50,98.7L50,98.7z
		 M50,0C22.4,0,0,22.4,0,50s22.4,50,50,50s50-22.4,50-50S77.6,0,50,0L50,0z"/>
</g>
</svg>
